<svg width="24" height="24" viewBox="0 0 24 24" fill="none" xmlns="http://www.w3.org/2000/svg">
<path fill-rule="evenodd" clip-rule="evenodd" d="M12 3.5C7.31581 3.5 3.5 7.31581 3.5 12C3.5 16.6842 7.31581 20.5 12 20.5C16.6842 20.5 20.5 16.6842 20.5 12C20.5 7.31581 16.6842 3.5 12 3.5ZM12 4.8077C15.9793 4.8077 19.1923 8.02074 19.1923 12C19.1923 15.9793 15.9793 19.1923 12 19.1923C8.02072 19.1923 4.80768 15.9793 4.80768 12C4.80768 8.02074 8.02072 4.8077 12 4.8077ZM10.6924 13.6908L14.9985 9.38461C15.2529 9.13029 15.6648 9.12915 15.9206 9.38206C16.1783 9.63695 16.1794 10.0529 15.9231 10.3092L10.6924 15.5399L8.07668 12.9199C7.82288 12.6657 7.82305 12.2539 8.07707 11.9999C8.33101 11.746 8.74267 11.7457 8.99692 11.9994L10.6924 13.6908Z" fill="black"/>
</svg>
