<svg width="24" height="24" viewBox="0 0 24 24" fill="none" xmlns="http://www.w3.org/2000/svg">
<path fill-rule="evenodd" clip-rule="evenodd" d="M13.5023 3.87805L21.765 18.3659C22.4327 19.5366 21.5981 21 20.2627 21H3.7373C2.40192 21 1.5673 19.5366 2.235 18.3659L10.4977 3.87805C11.1654 2.70732 12.8346 2.70732 13.5023 3.87805ZM20.6383 19.0244L12.3756 4.53659C12.2087 4.2439 11.7913 4.2439 11.6244 4.53658L3.36173 19.0244C3.1948 19.3171 3.40346 19.6829 3.7373 19.6829H20.2627C20.5965 19.6829 20.8052 19.3171 20.6383 19.0244Z" fill="black"/>
<path d="M12.6582 9.675C12.6582 9.30221 12.3597 9 11.9914 9C11.6232 9 11.3246 9.30221 11.3246 9.675V15.3C11.3246 15.6728 11.6232 15.975 11.9914 15.975C12.3597 15.975 12.6582 15.6728 12.6582 15.3V9.675Z" fill="black"/>
<path d="M11.9914 18C12.3597 18 12.6582 17.6978 12.6582 17.325C12.6582 16.9522 12.3597 16.65 11.9914 16.65C11.6232 16.65 11.3246 16.9522 11.3246 17.325C11.3246 17.6978 11.6232 18 11.9914 18Z" fill="black"/>
</svg>
