<svg width="17" height="16" viewBox="0 0 17 16" fill="none" xmlns="http://www.w3.org/2000/svg">
<path fill-rule="evenodd" clip-rule="evenodd" d="M4.08524 3.48512C4.28773 3.28263 4.61604 3.28263 4.81853 3.48512L8.60003 7.26662L12.3815 3.48512C12.584 3.28263 12.9123 3.28263 13.1148 3.48512C13.3173 3.68762 13.3173 4.01592 13.1148 4.21842L9.33333 7.99992L13.1148 11.7814C13.3173 11.9839 13.3173 12.3122 13.1148 12.5147C12.9123 12.7172 12.584 12.7172 12.3815 12.5147L8.60003 8.73322L4.81853 12.5147C4.61604 12.7172 4.28773 12.7172 4.08524 12.5147C3.88274 12.3122 3.88274 11.9839 4.08524 11.7814L7.86674 7.99992L4.08524 4.21842C3.88274 4.01592 3.88274 3.68762 4.08524 3.48512Z" fill="#FAFAFA"/>
</svg>
