<svg width="24" height="24" viewBox="0 0 24 24" fill="none" xmlns="http://www.w3.org/2000/svg">
<path fill-rule="evenodd" clip-rule="evenodd" d="M22.7071 17.7071C23.0976 17.3166 23.0976 16.6834 22.7071 16.2929L14.2071 7.79289C13.8166 7.40237 13.1834 7.40237 12.7929 7.79289L8.5 12.0858L2.70711 6.29289C2.31658 5.90237 1.68342 5.90237 1.29289 6.29289C0.902369 6.68342 0.902369 7.31658 1.29289 7.70711L7.79289 14.2071C8.18342 14.5976 8.81658 14.5976 9.20711 14.2071L13.5 9.91421L21.2929 17.7071C21.6834 18.0976 22.3166 18.0976 22.7071 17.7071Z" fill="#CA453E"/>
<path fill-rule="evenodd" clip-rule="evenodd" d="M15 17C15 17.5523 15.4477 18 16 18H22C22.5523 18 23 17.5523 23 17V11C23 10.4477 22.5523 10 22 10C21.4477 10 21 10.4477 21 11V16H16C15.4477 16 15 16.4477 15 17Z" fill="#CA453E"/>
</svg>
